<?xml version="1.0"?>
<svg xmlns="http://www.w3.org/2000/svg" xmlns:xlink="http://www.w3.org/1999/xlink" version="1.1" id="Capa_1" x="0px" y="0px" viewBox="0 0 218.453 218.453" style="enable-background:new 0 0 218.453 218.453;" xml:space="preserve" width="512px" height="512px" class=""><g><g>
	<g>
		<path d="M145.067,71.68h-71.68c-1.884,0-3.413,1.529-3.413,3.413v68.267c0,1.884,1.529,3.413,3.413,3.413h71.68    c1.884,0,3.413-1.529,3.413-3.413V75.093C148.48,73.209,146.951,71.68,145.067,71.68z M141.653,139.947H76.8v-61.44h64.853    V139.947z" data-original="#000000" class="active-path" data-old_color="#ffffff" fill="#ffffff"/>
	</g>
</g><g>
	<g>
		<path d="M109.227,83.627c-14.116,0-25.6,11.484-25.6,25.6s11.484,25.6,25.6,25.6s25.6-11.484,25.6-25.6    S123.343,83.627,109.227,83.627z M109.227,128c-10.351,0-18.773-8.422-18.773-18.773s8.422-18.773,18.773-18.773    S128,98.876,128,109.227S119.578,128,109.227,128z" data-original="#000000" class="active-path" data-old_color="#ffffff" fill="#ffffff"/>
	</g>
</g><g>
	<g>
		<path d="M138.24,139.947H80.213c-1.884,0-3.413,1.529-3.413,3.413v71.68c0,1.884,1.529,3.413,3.413,3.413h58.027    c1.884,0,3.413-1.529,3.413-3.413v-71.68C141.653,141.476,140.124,139.947,138.24,139.947z M134.827,211.627h-51.2v-64.853h51.2    V211.627z" data-original="#000000" class="active-path" data-old_color="#ffffff" fill="#ffffff"/>
	</g>
</g><g>
	<g>
		<path d="M147.994,73.337l-10.24-17.067c-0.616-1.027-1.727-1.657-2.927-1.657h-51.2c-1.2,0-2.311,0.628-2.927,1.657L70.46,73.337    c-0.633,1.055-0.649,2.367-0.043,3.437c0.606,1.07,1.739,1.732,2.97,1.732h71.68c1.23,0,2.364-0.662,2.97-1.732    C148.642,75.704,148.627,74.392,147.994,73.337z M79.415,71.68l6.146-10.24h47.334l6.144,10.24H79.415z" data-original="#000000" class="active-path" data-old_color="#ffffff" fill="#ffffff"/>
	</g>
</g><g>
	<g>
		<path d="M93.867,150.187c-1.884,0-3.413,1.529-3.413,3.413v61.44c0,1.884,1.529,3.413,3.413,3.413s3.413-1.529,3.413-3.413V153.6    C97.28,151.716,95.751,150.187,93.867,150.187z" data-original="#000000" class="active-path" data-old_color="#ffffff" fill="#ffffff"/>
	</g>
</g><g>
	<g>
		<path d="M104.107,150.187c-1.884,0-3.413,1.529-3.413,3.413v61.44c0,1.884,1.529,3.413,3.413,3.413s3.413-1.529,3.413-3.413V153.6    C107.52,151.716,105.991,150.187,104.107,150.187z" data-original="#000000" class="active-path" data-old_color="#ffffff" fill="#ffffff"/>
	</g>
</g><g>
	<g>
		<path d="M114.347,150.187c-1.884,0-3.413,1.529-3.413,3.413v61.44c0,1.884,1.529,3.413,3.413,3.413s3.413-1.529,3.413-3.413V153.6    C117.76,151.716,116.231,150.187,114.347,150.187z" data-original="#000000" class="active-path" data-old_color="#ffffff" fill="#ffffff"/>
	</g>
</g><g>
	<g>
		<path d="M124.587,150.187c-1.884,0-3.413,1.529-3.413,3.413v61.44c0,1.884,1.529,3.413,3.413,3.413    c1.884,0,3.413-1.529,3.413-3.413V153.6C128,151.716,126.471,150.187,124.587,150.187z" data-original="#000000" class="active-path" data-old_color="#ffffff" fill="#ffffff"/>
	</g>
</g><g>
	<g>
		<path d="M134.827,37.547h-51.2c-1.884,0-3.413,1.529-3.413,3.413v17.067c0,1.884,1.529,3.413,3.413,3.413h51.2    c1.884,0,3.413-1.529,3.413-3.413V40.96C138.24,39.076,136.711,37.547,134.827,37.547z M131.413,54.613H87.04v-10.24h44.373    V54.613z" data-original="#000000" class="active-path" data-old_color="#ffffff" fill="#ffffff"/>
	</g>
</g><g>
	<g>
		<path d="M137.708,39.127L113.814,1.58C113.186,0.596,112.101,0,110.933,0h-3.413c-1.167,0-2.253,0.596-2.879,1.58L80.747,39.127    c-0.669,1.051-0.712,2.383-0.113,3.475c0.599,1.094,1.746,1.772,2.992,1.772h51.2c1.246,0,2.393-0.678,2.993-1.771    C138.419,41.51,138.377,40.178,137.708,39.127z M89.846,37.547L109.227,7.09l19.383,30.457H89.846z" data-original="#000000" class="active-path" data-old_color="#ffffff" fill="#ffffff"/>
	</g>
</g><g>
	<g>
		<path d="M114.244,111.814l-3.413-13.653c-0.457-1.83-2.314-2.941-4.139-2.485c-1.83,0.457-2.942,2.311-2.485,4.139l2.354,9.412    h-5.868c-1.884,0-3.413,1.529-3.413,3.413s1.529,3.413,3.413,3.413h10.24c1.051,0,2.043-0.485,2.69-1.311    C114.27,113.913,114.499,112.833,114.244,111.814z" data-original="#000000" class="active-path" data-old_color="#ffffff" fill="#ffffff"/>
	</g>
</g><g>
	<g>
		<path d="M80.213,211.627H42.667c-1.884,0-3.413,1.529-3.413,3.413s1.529,3.413,3.413,3.413h37.547    c1.884,0,3.413-1.529,3.413-3.413S82.098,211.627,80.213,211.627z" data-original="#000000" class="active-path" data-old_color="#ffffff" fill="#ffffff"/>
	</g>
</g><g>
	<g>
		<path d="M175.787,211.627H138.24c-1.884,0-3.413,1.529-3.413,3.413s1.529,3.413,3.413,3.413h37.547    c1.884,0,3.413-1.529,3.413-3.413S177.671,211.627,175.787,211.627z" data-original="#000000" class="active-path" data-old_color="#ffffff" fill="#ffffff"/>
	</g>
</g></g> </svg>
